<svg width="25" height="25" viewBox="0 0 25 25" fill="none" xmlns="http://www.w3.org/2000/svg">
<g clip-path="url(#clip0_3361_114810)">
<path fill-rule="evenodd" clip-rule="evenodd" d="M16.6103 0.651362C16.8108 0.449546 17.1094 0.449546 17.3099 0.651362C17.5106 0.852057 17.5106 1.1499 17.3099 1.35051L16.0084 2.65214C16.4277 2.93212 16.8081 3.27473 17.1386 3.66659C17.9303 4.60479 18.4354 5.8261 18.5046 7.14927C18.505 7.15532 18.5054 7.16133 18.5059 7.16734C18.5065 7.17502 18.5071 7.18271 18.5074 7.19044C18.5115 7.28054 18.5137 7.37111 18.5137 7.46201H6.48633C6.48633 7.37111 6.48833 7.28054 6.49258 7.19044C6.4929 7.18355 6.4934 7.1767 6.4939 7.16985C6.4944 7.163 6.4949 7.15616 6.49522 7.14927C6.56465 5.8261 7.06959 4.60487 7.86124 3.66651C8.19191 3.27465 8.57216 2.93204 8.99149 2.65206L7.6901 1.35043C7.4894 1.1499 7.4894 0.852057 7.6901 0.651362C7.89063 0.449546 8.18903 0.449546 8.38972 0.651362L9.735 1.99224L9.79723 2.05422C10.5949 1.65476 11.4893 1.45526 12.4852 1.45334L12.5 1.45318H12.5001L12.5147 1.45334C13.5107 1.45526 14.4051 1.65476 15.2029 2.05422L15.2649 1.99224L16.6103 0.651362ZM9.24144 4.95917C9.24144 5.37418 9.57788 5.71062 9.99288 5.71062C10.4079 5.71062 10.7443 5.37418 10.7443 4.95917C10.7443 4.54417 10.4079 4.20773 9.99288 4.20773C9.57788 4.20773 9.24144 4.54417 9.24144 4.95917ZM14.2557 4.95917C14.2557 5.37418 14.5921 5.71062 15.0071 5.71062C15.4221 5.71062 15.7586 5.37418 15.7586 4.95917C15.7586 4.54417 15.4221 4.20773 15.0071 4.20773C14.5921 4.20773 14.2557 4.54417 14.2557 4.95917ZM3.98109 18.4864C4.78363 18.4864 5.48334 17.7867 5.48334 16.9841V9.96741C5.48334 9.1692 4.78371 8.46581 3.98109 8.46581C3.17863 8.46581 2.479 9.1692 2.479 9.96741V16.9841C2.479 17.7866 3.17863 18.4864 3.98109 18.4864ZM16.5075 22.9978C16.5075 23.8002 15.8077 24.5 15.0053 24.5C14.2028 24.5 13.503 23.8002 13.5031 22.9978V19.4894H11.4969V22.9978C11.4969 23.8003 10.7972 24.5001 9.9948 24.5001C9.19218 24.5001 8.49256 23.8003 8.49256 22.9978V19.4894H7.4894C6.88756 19.4894 6.48633 19.0882 6.48633 18.4864V8.46581H18.5137V18.4863C18.5137 19.088 18.1125 19.4894 17.5106 19.4894H16.5075V22.9978ZM22.5213 16.9841C22.5213 17.7867 21.8217 18.4864 21.0192 18.4864C20.2166 18.4864 19.517 17.7866 19.517 16.9841V9.96741C19.517 9.1692 20.2167 8.46581 21.0192 8.46581C21.8217 8.46581 22.5213 9.1692 22.5213 9.96741V16.9841Z" fill="#E39753"/>
</g>
<defs>
<clipPath id="clip0_3361_114810">
<rect width="24" height="24" fill="white" transform="translate(0.5 0.5)"/>
</clipPath>
</defs>
</svg>
