<svg xmlns="http://www.w3.org/2000/svg" xmlns:xlink="http://www.w3.org/1999/xlink" id="body_1" width="24" height="24"><g transform="matrix(1 0 0 1 0 0)"><path d="M17.65 6.35C 16.2 4.9 14.21 4 12 4C 7.58 4 4.01 7.58 4.01 12C 4.01 16.42 7.58 20 12 20C 15.73 20 18.84 17.45 19.73 14L19.73 14L17.65 14C 16.83 16.33 14.61 18 12 18C 8.690001 18 6 15.309999 6 12C 6 8.690001 8.690001 6 12 6C 13.66 6 15.14 6.69 16.22 7.7799997L16.22 7.7799997L13 11L20 11L20 4L17.65 6.35z" stroke="none" fill="#000000" fill-rule="nonzero"></path><path d="M0 0L24 0L24 24L0 24L0 0z" stroke="none" fill="none"></path></g></svg>